<svg width="60" height="60" viewBox="0 0 60 60" fill="none" xmlns="http://www.w3.org/2000/svg">
<circle cx="30" cy="30" r="30" fill="white"/>
<path d="M29.9439 35.9441C27.7345 35.9441 25.9438 37.7354 25.9438 39.9448C25.9438 42.1542 27.7351 43.9455 29.9439 43.9455C32.1527 43.9455 33.9439 42.1542 33.9439 39.9448C33.9439 37.7354 32.2064 35.9441 29.9439 35.9441ZM30.0001 25.9439C25.6094 25.9439 21.3812 27.544 18.0937 30.4459C17.2686 31.2315 17.1874 32.494 17.9187 33.3253C18.6562 34.1503 19.9187 34.2316 20.7437 33.5003C23.3 31.244 26.5876 30.0002 30.0001 30.0002C33.4127 30.0002 36.7065 31.2428 39.2565 33.5003C39.6378 33.8378 40.1128 34.0003 40.5816 34.0003C40.8652 34.0005 41.1457 33.9404 41.4043 33.8239C41.6629 33.7074 41.8938 33.5373 42.0816 33.3247C42.8128 32.494 42.7378 31.2315 41.9066 30.5003C38.619 27.6002 34.3939 25.9439 30.0001 25.9439ZM49.388 23.7939C44.1441 18.7675 37.2627 16 30.0001 16C22.7375 16 15.8555 18.7675 10.615 23.7939C9.81814 24.5595 9.79252 25.8252 10.5564 26.6221C11.3202 27.4208 12.5858 27.4421 13.3846 26.6807C17.8187 22.3189 23.775 20.0001 30.0001 20.0001C36.2252 20.0001 42.0691 22.3732 46.6129 26.6814C47.0067 27.0502 47.5004 27.2377 48.0004 27.2377C48.5258 27.2377 49.0511 27.0326 49.4436 26.6224C50.2067 25.8252 50.1817 24.5064 49.388 23.7939Z" fill="#9694E7"/>
</svg>
