<svg width="60" height="60" viewBox="0 0 60 60" fill="none" xmlns="http://www.w3.org/2000/svg">
<circle cx="30" cy="30" r="30" fill="white"/>
<path d="M26.25 27.1875C26.25 26.1521 25.4104 25.3125 24.375 25.3125H23.4375C21.3662 25.3125 19.6875 26.9912 19.6875 29.0625V31.875C19.6875 33.9463 21.3662 35.625 23.4375 35.625H24.375C25.4104 35.625 26.25 34.7854 26.25 33.75V27.1875ZM36.5625 35.625C38.6338 35.625 40.3125 33.9463 40.3125 31.875V29.0625C40.3125 26.9912 38.6338 25.3125 36.5625 25.3125H35.625C34.5896 25.3125 33.75 26.1521 33.75 27.1875V33.75C33.75 34.7854 34.5896 35.625 35.625 35.625H36.5625ZM30 15C21.6316 15 15.2684 21.9627 15 30V30.9375C15 31.4555 15.4195 31.875 15.9375 31.875H16.875C17.393 31.875 17.8125 31.4555 17.8125 30.9375V30C17.8125 23.2799 23.2799 17.8125 30 17.8125C36.7201 17.8125 42.1875 23.2799 42.1875 30H42.1805C42.1852 30.1424 42.1875 39.7102 42.1875 39.7102C42.1875 41.0783 41.0783 42.1875 39.7102 42.1875H33.75C33.75 40.6342 32.4908 39.375 30.9375 39.375H29.0625C27.5092 39.375 26.25 40.6342 26.25 42.1875C26.25 43.7408 27.5092 45 29.0625 45H39.7102C42.6316 45 45 42.6316 45 39.7102V30C44.7316 21.9627 38.3684 15 30 15Z" fill="#9694E7"/>
</svg>
