<svg width="60" height="60" viewBox="0 0 60 60" fill="none" xmlns="http://www.w3.org/2000/svg">
<circle cx="30" cy="30" r="30" fill="white"/>
<path d="M10.0917 29.8445C10.0928 34.6071 11.7926 39.2132 14.8856 42.8348C17.9786 46.4564 22.2619 48.8561 26.9657 49.6025V35.6245H21.8917V29.8445H26.9717V25.4445C26.8595 24.4147 26.9755 23.3728 27.3113 22.3928C27.6472 21.4129 28.1947 20.5189 28.915 19.7744C29.6352 19.0298 30.5106 18.453 31.4789 18.0849C32.4472 17.7168 33.4847 17.5665 34.5177 17.6445C36.0177 17.6685 37.5177 17.8025 38.9977 18.0445V22.9625H36.4697C36.04 22.9062 35.6032 22.9472 35.1915 23.0825C34.7798 23.2177 34.4038 23.4437 34.0912 23.7438C33.7786 24.0439 33.5375 24.4104 33.3856 24.8163C33.2337 25.2221 33.1749 25.6569 33.2137 26.0885V29.8445H38.7557L37.8697 35.6265H33.2137V49.6025C36.9889 49.0059 40.5141 47.34 43.372 44.802C46.2298 42.2641 48.3006 38.9604 49.3392 35.2821C50.3777 31.6038 50.3406 27.705 49.2321 24.0472C48.1235 20.3893 45.9901 17.1258 43.0844 14.6428C40.1787 12.1598 36.6223 10.5614 32.8364 10.0369C29.0505 9.51237 25.1935 10.0836 21.7222 11.6831C18.2508 13.2825 15.3105 15.8432 13.2493 19.0618C11.1881 22.2805 10.0923 26.0224 10.0917 29.8445V29.8445Z" fill="#9694E7"/>
</svg>
