<svg width="20" height="21" viewBox="0 0 20 21" fill="none" xmlns="http://www.w3.org/2000/svg">
<path d="M10 0.5C4.47768 0.5 0 4.97768 0 10.5C0 16.0223 4.47768 20.5 10 20.5C15.5223 20.5 20 16.0223 20 10.5C20 4.97768 15.5223 0.5 10 0.5ZM13.9397 13.5737L13.3013 14.4442C13.2875 14.4632 13.27 14.4792 13.2499 14.4914C13.2298 14.5035 13.2075 14.5116 13.1842 14.5151C13.161 14.5187 13.1373 14.5176 13.1145 14.5119C13.0917 14.5062 13.0702 14.4961 13.0513 14.4821L9.35937 11.7902C9.33637 11.7737 9.31768 11.7519 9.30486 11.7266C9.29204 11.7014 9.28548 11.6734 9.28571 11.6451V5.5C9.28571 5.40179 9.36607 5.32143 9.46429 5.32143H10.5379C10.6362 5.32143 10.7165 5.40179 10.7165 5.5V11.0246L13.8996 13.3259C13.9799 13.3817 13.9978 13.4933 13.9397 13.5737Z" fill="#9694E7"/>
</svg>
