<svg width="60" height="60" viewBox="0 0 60 60" fill="none" xmlns="http://www.w3.org/2000/svg">
<circle cx="30" cy="30" r="30" fill="white"/>
<path d="M49.1863 20.4029C48.9586 19.5583 48.5138 18.7881 47.8959 18.1688C47.2781 17.5496 46.5089 17.103 45.6648 16.8734C42.535 16.014 30.0138 16 30.0138 16C30.0138 16 17.4947 15.986 14.3629 16.8074C13.5194 17.0476 12.7517 17.5005 12.1336 18.1228C11.5156 18.7451 11.0678 19.5158 10.8334 20.3609C10.008 23.4907 10 29.9821 10 29.9821C10 29.9821 9.99201 36.5055 10.8114 39.6033C11.2711 41.3161 12.6202 42.6691 14.3349 43.1308C17.4967 43.9902 29.9839 44.0042 29.9839 44.0042C29.9839 44.0042 42.505 44.0182 45.6348 43.1988C46.4792 42.9696 47.2491 42.524 47.8685 41.906C48.4879 41.2881 48.9352 40.5191 49.1663 39.6753C49.9937 36.5475 49.9997 30.0581 49.9997 30.0581C49.9997 30.0581 50.0397 23.5327 49.1863 20.4029V20.4029ZM26.0087 35.9959L26.0187 24.0044L36.4253 30.0101L26.0087 35.9959V35.9959Z" fill="#9694E7"/>
</svg>
