<svg width="60" height="60" viewBox="0 0 60 60" fill="none" xmlns="http://www.w3.org/2000/svg">
<circle cx="30" cy="30" r="30" fill="white"/>
<path d="M50.1087 21.7468C50.0863 20.0644 49.7714 18.3989 49.178 16.8245C48.6635 15.4965 47.8776 14.2905 46.8705 13.2835C45.8635 12.2764 44.6575 11.4905 43.3295 10.976C41.7754 10.3926 40.1335 10.0771 38.4739 10.0431C36.3371 9.94755 35.6596 9.9209 30.2353 9.9209C24.8111 9.9209 24.1158 9.9209 21.9945 10.0431C20.3356 10.0774 18.6946 10.3928 17.1411 10.976C15.813 11.4902 14.6068 12.276 13.5997 13.283C12.5926 14.2901 11.8068 15.4963 11.2926 16.8245C10.7081 18.3774 10.3933 20.0189 10.3619 21.6779C10.2664 23.8169 10.2375 24.4944 10.2375 29.9187C10.2375 35.3429 10.2375 36.036 10.3619 38.1595C10.3953 39.8209 10.7085 41.4602 11.2926 43.0173C11.8077 44.3451 12.594 45.5508 13.6015 46.5574C14.6089 47.5641 15.8152 48.3495 17.1434 48.8636C18.6925 49.4704 20.3339 49.8085 21.9968 49.8631C24.1358 49.9587 24.8133 49.9875 30.2376 49.9875C35.6618 49.9875 36.3571 49.9875 38.4783 49.8631C40.1379 49.8305 41.7799 49.5157 43.334 48.9324C44.6616 48.4173 45.8673 47.6312 46.8742 46.6242C47.8812 45.6173 48.6673 44.4115 49.1825 43.0839C49.7666 41.5291 50.0798 39.8898 50.1132 38.2261C50.2087 36.0893 50.2375 35.4118 50.2375 29.9853C50.2331 24.5611 50.2331 23.8725 50.1087 21.7468V21.7468ZM30.222 40.1763C24.549 40.1763 19.9532 35.5806 19.9532 29.9076C19.9532 24.2345 24.549 19.6388 30.222 19.6388C32.9454 19.6388 35.5573 20.7207 37.4831 22.6465C39.4089 24.5722 40.4908 27.1841 40.4908 29.9076C40.4908 32.631 39.4089 35.2429 37.4831 37.1687C35.5573 39.0945 32.9454 40.1763 30.222 40.1763V40.1763ZM40.8995 21.6535C40.5849 21.6538 40.2734 21.592 39.9828 21.4718C39.6922 21.3516 39.4281 21.1752 39.2057 20.9528C38.9833 20.7304 38.8069 20.4663 38.6867 20.1756C38.5664 19.885 38.5047 19.5735 38.505 19.259C38.505 18.9447 38.5669 18.6334 38.6872 18.3431C38.8074 18.0527 38.9837 17.7888 39.206 17.5666C39.4282 17.3443 39.6921 17.1681 39.9825 17.0478C40.2728 16.9275 40.5841 16.8656 40.8984 16.8656C41.2127 16.8656 41.5239 16.9275 41.8143 17.0478C42.1047 17.1681 42.3685 17.3443 42.5907 17.5666C42.813 17.7888 42.9893 18.0527 43.1096 18.3431C43.2298 18.6334 43.2917 18.9447 43.2917 19.259C43.2917 20.5828 42.2211 21.6535 40.8995 21.6535Z" fill="#9694E7"/>
<path d="M30.222 36.578C33.9059 36.578 36.8923 33.5916 36.8923 29.9077C36.8923 26.2237 33.9059 23.2373 30.222 23.2373C26.538 23.2373 23.5516 26.2237 23.5516 29.9077C23.5516 33.5916 26.538 36.578 30.222 36.578Z" fill="#9694E7"/>
</svg>
