<svg width="20" height="27" viewBox="0 0 20 27" fill="none" xmlns="http://www.w3.org/2000/svg">
<path d="M5.30729 0.537911C6.0241 0.321789 6.79331 0.357694 7.48688 0.63965C8.18044 0.921605 8.75651 1.4326 9.1192 2.08757L9.24042 2.33165L10.3249 4.74132C10.654 5.47272 10.7608 6.28473 10.6321 7.07636C10.5033 7.86799 10.1447 8.60431 9.6008 9.19373L9.38293 9.40996L7.67437 11.0039C7.36641 11.2954 7.59738 12.4241 8.7113 14.3538C9.71383 16.0902 10.5296 16.9011 10.931 16.9453H11.0014L11.0882 16.9289L14.4464 15.9018C14.8977 15.7634 15.3793 15.7579 15.8337 15.8861C16.288 16.0142 16.6958 16.2704 17.0084 16.6242L17.1574 16.8126L19.3804 19.8923C19.816 20.4959 20.0331 21.2299 19.9959 21.9734C19.9587 22.7169 19.6694 23.4256 19.1756 23.9827L18.9758 24.1891L18.0879 25.0311C17.2906 25.7861 16.2933 26.2963 15.2145 26.5011C14.1357 26.7058 13.0207 26.5964 12.0023 26.1859C8.83253 24.9082 5.95271 21.9891 3.33663 17.458C0.715644 12.9155 -0.373705 8.9562 0.112817 5.5653C0.26004 4.54027 0.682129 3.57426 1.33426 2.76984C1.98638 1.96543 2.8442 1.35265 3.8166 0.996585L4.13276 0.891745L5.30729 0.537911V0.537911Z" fill="#9694E7"/>
</svg>
