<svg width="60" height="60" viewBox="0 0 60 60" fill="none" xmlns="http://www.w3.org/2000/svg">
<circle cx="30" cy="30" r="30" fill="white"/>
<path d="M50.05 18.0481C48.9539 19.6812 47.5668 21.1353 45.9561 22.2986C45.9785 22.6342 45.9785 22.9921 45.9785 23.3501C45.9785 34.2002 37.7234 46.7058 22.6451 46.7058C18.0143 46.7058 13.6966 45.3411 10.05 43.0145C10.6988 43.0816 11.3476 43.1264 12.0187 43.1264C15.8666 43.1264 19.4013 41.8065 22.1977 39.6141C20.4871 39.5787 18.8302 39.0099 17.4585 37.9871C16.0868 36.9644 15.0688 35.5388 14.5467 33.9094C15.0389 33.9989 15.5534 34.066 16.0903 34.066C16.8286 34.066 17.5668 33.9541 18.238 33.7751C16.3825 33.3942 14.7151 32.3852 13.517 30.9181C12.3189 29.451 11.6633 27.6156 11.6608 25.7214V25.632C12.7794 26.236 14.0322 26.6163 15.3744 26.661C14.2509 25.9074 13.3305 24.8886 12.6945 23.6946C12.0585 22.5006 11.7265 21.1682 11.7279 19.8154C11.7279 18.3165 12.1306 16.9071 12.8465 15.6991C16.8957 20.6655 22.936 23.9317 29.7592 24.2673C29.625 23.6633 29.5355 23.0369 29.5355 22.3881C29.5414 20.2145 30.4091 18.1319 31.9481 16.597C33.4872 15.0621 35.5722 14.2002 37.7458 14.2002C40.1172 14.2002 42.2424 15.1845 43.7413 16.7953C45.5981 16.415 47.3655 15.7438 48.9539 14.8042C48.3275 16.7058 47.0299 18.3165 45.3297 19.3232C46.9597 19.1451 48.5521 18.7149 50.05 18.0481V18.0481Z" fill="#9694E7"/>
</svg>
