<svg width="20" height="19" viewBox="0 0 20 19" fill="none" xmlns="http://www.w3.org/2000/svg">
<path d="M17 8.5C18.13 8.5 19.16 8.11 20 7.48V16.5C20 17.6 19.1 18.5 18 18.5H2C0.9 18.5 0 17.6 0 16.5V4.5C0 3.4 0.9 2.5 2 2.5H12.1C12.04 2.82 12 3.16 12 3.5C12 4.98 12.65 6.29 13.67 7.21L10 9.5L3.3 5.31C3.20546 5.24453 3.09863 5.19893 2.98595 5.17595C2.87328 5.15297 2.75712 5.15309 2.6445 5.1763C2.53187 5.19951 2.42513 5.24533 2.33073 5.311C2.23632 5.37666 2.15623 5.46079 2.09528 5.5583C2.03434 5.65581 1.99381 5.76468 1.97616 5.87831C1.9585 5.99194 1.96409 6.10796 1.99258 6.21937C2.02106 6.33078 2.07186 6.43525 2.14189 6.52645C2.21192 6.61766 2.29973 6.69371 2.4 6.75L9.47 11.17C9.79 11.37 10.21 11.37 10.53 11.17L15.3 8.19C15.84 8.38 16.4 8.5 17 8.5V8.5ZM14 3.5C14 5.16 15.34 6.5 17 6.5C18.66 6.5 20 5.16 20 3.5C20 1.84 18.66 0.5 17 0.5C15.34 0.5 14 1.84 14 3.5Z" fill="#9694E7"/>
</svg>
