<svg width="60" height="60" viewBox="0 0 60 60" fill="none" xmlns="http://www.w3.org/2000/svg">
<circle cx="30" cy="30" r="30" fill="white"/>
<path d="M42.7779 15H17.2146C15.9921 15 15 15.9687 15 17.1617V42.8354C15 44.03 15.9921 45 17.2146 45H42.7779C44.0013 45 45 44.03 45 42.8354V17.1617C45 15.9687 44.0013 15 42.7779 15ZM23.8975 40.5642H19.4458V26.2479H23.8975V40.5642ZM21.6717 24.2904C21.3328 24.2904 20.9973 24.2236 20.6843 24.0939C20.3712 23.9642 20.0869 23.7741 19.8473 23.5344C19.6078 23.2947 19.4179 23.0102 19.2883 22.6971C19.1588 22.384 19.0923 22.0484 19.0925 21.7096C19.0925 21.0256 19.3642 20.3696 19.8479 19.886C20.3315 19.4023 20.9875 19.1306 21.6715 19.1306C22.3554 19.1306 23.0114 19.4023 23.4951 19.886C23.9787 20.3696 24.2504 21.0256 24.2504 21.7096C24.2504 22.3937 23.9788 23.0498 23.4952 23.5338C23.0117 24.0177 22.3558 24.2899 21.6717 24.2904ZM40.5625 40.5642H36.1179V33.6025C36.1179 31.9417 36.0854 29.8063 33.805 29.8063C31.4892 29.8063 31.1363 31.615 31.1363 33.4821V40.5646H26.6883V26.2479H30.9571V28.2029H31.0179C31.6121 27.0779 33.0638 25.8908 35.2288 25.8908C39.7313 25.8908 40.5629 28.855 40.5629 32.7113L40.5625 40.5642Z" fill="#9694E7"/>
</svg>
