<svg width="20" height="27" viewBox="0 0 20 27" fill="none" xmlns="http://www.w3.org/2000/svg">
<path d="M9.99998 26.3599C8.19561 24.8208 6.52312 23.1335 4.99999 21.3156C2.71428 18.5856 1.25556e-06 14.5199 1.25556e-06 10.6456C-0.000990025 8.66699 0.585012 6.73255 1.68384 5.08709C2.78268 3.44164 4.34495 2.15915 6.17294 1.40192C8.00093 0.644692 10.0125 0.446769 11.953 0.833198C13.8935 1.21963 15.6758 2.17304 17.0742 3.57277C18.0053 4.49971 18.7433 5.60211 19.2455 6.81616C19.7477 8.03021 20.0041 9.3318 20 10.6456C20 14.5199 17.2857 18.5856 15 21.3156C13.4768 23.1335 11.8043 24.8208 9.99998 26.3599ZM9.99998 6.35991C8.86334 6.35991 7.77325 6.81144 6.96953 7.61516C6.1658 8.41889 5.71427 9.50897 5.71427 10.6456C5.71427 11.7823 6.1658 12.8723 6.96953 13.6761C7.77325 14.4798 8.86334 14.9313 9.99998 14.9313C11.1366 14.9313 12.2267 14.4798 13.0304 13.6761C13.8342 12.8723 14.2857 11.7823 14.2857 10.6456C14.2857 9.50897 13.8342 8.41889 13.0304 7.61516C12.2267 6.81144 11.1366 6.35991 9.99998 6.35991Z" fill="#9694E7"/>
</svg>
