<svg width="60" height="60" viewBox="0 0 60 60" fill="none" xmlns="http://www.w3.org/2000/svg">
<circle cx="30" cy="30" r="30" fill="white"/>
<path fill-rule="evenodd" clip-rule="evenodd" d="M29.75 13.3333C20.5452 13.3333 13.0833 20.7952 13.0833 30C13.0833 39.2048 20.5452 46.6667 29.75 46.6667C38.9548 46.6667 46.4167 39.2048 46.4167 30C46.4167 20.7952 38.9548 13.3333 29.75 13.3333ZM9.75 30C9.75 18.9543 18.7043 10 29.75 10C40.7957 10 49.75 18.9543 49.75 30C49.75 41.0457 40.7957 50 29.75 50C18.7043 50 9.75 41.0457 9.75 30Z" fill="#9694E7"/>
<path fill-rule="evenodd" clip-rule="evenodd" d="M25.7361 47.8929C25.5748 47.6848 25.5748 45.831 25.7361 42.3316C24.0095 42.3912 22.9187 42.2714 22.4636 41.9722C21.7808 41.5232 21.0974 40.1388 20.4909 39.1632C19.8845 38.1875 18.5386 38.0332 17.995 37.8152C17.4515 37.597 17.3151 36.7079 19.4927 37.3803C21.6703 38.0527 21.7766 39.8838 22.4636 40.312C23.1505 40.7402 24.7929 40.5528 25.5373 40.2098C26.2818 39.8668 26.227 38.5897 26.3597 38.0838C26.5276 37.6116 25.9361 37.5068 25.9231 37.503C25.1962 37.503 21.3782 36.6727 20.3296 32.9754C19.2808 29.2782 20.6317 26.8617 21.3524 25.8228C21.8329 25.1302 21.7904 23.6542 21.2249 21.3947C23.2779 21.1323 24.8622 21.7785 25.9778 23.3333C25.9789 23.3422 27.4404 22.4642 29.7502 22.4642C32.06 22.4642 32.8794 23.1794 33.5118 23.3333C34.1442 23.4872 34.65 20.6117 38.5557 21.3947C37.7402 22.9973 37.0574 25 37.5786 25.8228C38.0998 26.6457 40.1454 29.2622 38.8888 32.9754C38.0512 35.451 36.4044 36.9602 33.9487 37.503C33.6671 37.5928 33.5262 37.7378 33.5262 37.9378C33.5262 38.2379 33.907 38.2707 34.4554 39.6763C34.8211 40.6134 34.8475 43.2899 34.5347 47.7057C33.7422 47.9075 33.1257 48.0429 32.6851 48.1122C31.9039 48.2349 31.0557 48.3037 30.2224 48.3303C29.3891 48.3569 29.0997 48.3539 27.9475 48.2467C27.1795 48.1752 26.4423 48.0572 25.7361 47.8929Z" fill="#9694E7"/>
</svg>
