<svg width="60" height="60" viewBox="0 0 60 60" fill="none" xmlns="http://www.w3.org/2000/svg">
<circle cx="30" cy="30" r="30" fill="white"/>
<path d="M49.9794 18.3169C49.9923 18.3709 50 18.4314 50 18.4842V27.3253C50.0003 27.4381 49.9707 27.549 49.9142 27.6467C49.8576 27.7444 49.7762 27.8253 49.6783 27.8813L42.2579 32.1577V40.623C42.2582 40.7359 42.2286 40.8468 42.1721 40.9444C42.1155 41.0421 42.0341 41.123 41.9362 41.179L26.4468 50.0935C26.4107 50.1135 26.3722 50.1291 26.3323 50.1398L26.2924 50.1604C26.1847 50.1874 26.0719 50.1874 25.9642 50.1604C25.948 50.1555 25.9324 50.1486 25.9179 50.1398C25.8807 50.1283 25.8449 50.1127 25.8111 50.0935L10.3282 41.179C10.2295 41.1232 10.1473 41.0425 10.0897 40.9449C10.0321 40.8474 10.0011 40.7363 10 40.623V14.1009C10 14.0469 10.0129 13.9864 10.027 13.9336C10.0335 13.913 10.0399 13.9002 10.0476 13.8796L10.0875 13.7792C10.0939 13.7586 10.1145 13.7457 10.1274 13.7252L10.1879 13.6441C10.2096 13.6307 10.2298 13.6152 10.2484 13.5977C10.2754 13.5772 10.2947 13.5579 10.3217 13.5437L18.0638 9.08581C18.1617 9.02959 18.2727 9 18.3856 9C18.4985 9 18.6094 9.02959 18.7073 9.08581L26.4558 13.5437C26.4829 13.5566 26.5022 13.5772 26.5227 13.5977L26.5897 13.6441C26.6094 13.6699 26.6275 13.697 26.6437 13.7252C26.6566 13.738 26.6772 13.7586 26.69 13.7792L26.7299 13.8796C26.7364 13.9002 26.7505 13.913 26.7505 13.9336C26.77 13.9872 26.7792 14.044 26.7776 14.1009V30.6636L33.225 26.9508V18.4855C33.2274 18.4094 33.2436 18.3344 33.2726 18.2641L33.3125 18.1637C33.3254 18.1367 33.346 18.1238 33.3589 18.1032C33.3794 18.0762 33.3923 18.0492 33.4129 18.0299C33.4335 18.0106 33.4592 17.9964 33.4798 17.9836C33.4991 17.9621 33.5217 17.9439 33.5467 17.9295L41.2953 13.4716C41.3921 13.4122 41.5034 13.3808 41.617 13.3808C41.7306 13.3808 41.8419 13.4122 41.9387 13.4716L49.6808 17.9295C49.7079 17.9424 49.7272 17.963 49.7542 17.9836C49.7748 17.9964 49.7941 18.0106 49.8147 18.0299C49.8353 18.0492 49.8546 18.0762 49.8752 18.1032C49.888 18.1238 49.9086 18.1367 49.9151 18.1637C49.9357 18.1972 49.9421 18.2307 49.955 18.2641C49.9678 18.277 49.9755 18.2976 49.982 18.3182L49.9794 18.3169ZM48.7054 26.9495V19.6038L45.9977 21.1584L42.2579 23.3166V30.6623L48.7054 26.9495ZM40.971 40.2473V32.8938L37.284 34.9915L26.7737 40.9975V48.4179L40.971 40.2473ZM11.2843 15.2193V40.2473L25.4803 48.4179V40.9975L18.06 36.7945C18.0329 36.7816 18.0136 36.761 17.9931 36.7404C17.9725 36.7275 17.9467 36.7134 17.9326 36.6941H17.9261C17.9055 36.6735 17.8927 36.6477 17.8721 36.6272C17.8592 36.6066 17.8386 36.5873 17.8258 36.5602C17.8108 36.535 17.7995 36.5076 17.7923 36.4792C17.7794 36.4521 17.7653 36.4328 17.7588 36.4058C17.7524 36.3788 17.746 36.3453 17.746 36.3119C17.7395 36.2848 17.7331 36.2655 17.7331 36.2385V18.932L13.9933 16.7739L11.2843 15.2193ZM18.383 10.3869L11.9355 14.0996L18.383 17.8124L24.8304 14.0996L18.383 10.3869ZM21.7406 33.5656L25.4803 31.4074V15.2206L22.7727 16.7751L19.0264 18.9333V35.1202L21.7406 33.5656ZM41.6144 14.7701L35.1593 18.4829L41.6144 22.1956L48.0619 18.4829L41.6144 14.7701ZM40.971 23.3166L34.5158 19.6038V26.9495L38.2556 29.1077L40.9697 30.6623L40.971 23.3166ZM26.1251 39.8792L40.3147 31.7819L33.8736 28.0691L19.6905 36.2334L26.1251 39.8792Z" fill="#9694E7"/>
</svg>
