<svg width="60" height="60" viewBox="0 0 60 60" fill="none" xmlns="http://www.w3.org/2000/svg">
<circle cx="30" cy="30" r="30" fill="white"/>
<path d="M41.3325 29.1323C41.3325 27.0123 40.57 25.5448 39.9175 24.4023L39.7175 24.0773C38.925 22.8023 38.2325 21.6823 38.2325 20.3773C38.2325 18.8023 39.4275 17.3323 41.1125 17.3323C41.1625 17.3323 41.21 17.3373 41.2575 17.3398L41.335 17.3473C38.1755 14.4451 34.0402 12.8371 29.75 12.8423C26.9067 12.8408 24.1077 13.5469 21.6052 14.8967C19.1027 16.2466 16.9755 18.1979 15.415 20.5748C15.815 20.5873 16.1975 20.5973 16.52 20.5973C18.3125 20.5973 21.09 20.3798 21.09 20.3798C22.015 20.3248 22.125 21.6823 21.2 21.7923C21.2 21.7923 20.2725 21.9023 19.2375 21.9548L25.4875 40.5398L29.2375 29.2748L26.5625 21.9523C25.64 21.8973 24.765 21.7898 24.765 21.7898C23.84 21.7348 23.95 20.3198 24.8725 20.3748C24.8725 20.3748 27.7075 20.5923 29.3925 20.5923C31.1875 20.5923 33.9675 20.3748 33.9675 20.3748C34.8925 20.3198 35 21.6798 34.075 21.7898C34.075 21.7898 33.145 21.8973 32.1125 21.9523L38.3125 40.3948L40.0225 34.6773L40.1575 34.2448C40.8325 32.0948 41.33 30.5073 41.33 29.1298L41.3325 29.1323ZM12.5925 29.9998C12.5924 33.2217 13.4992 36.3785 15.2094 39.109C16.9195 41.8396 19.3638 44.0335 22.2625 45.4398L14.075 23.0148C13.0946 25.2128 12.5894 27.5931 12.5925 29.9998Z" fill="#9694E7"/>
<path d="M24.9025 46.4576L30.0525 31.5001L35.325 45.9501C35.36 46.0326 35.4 46.1101 35.4475 46.1851C32.0486 47.3825 28.3587 47.4779 24.9025 46.4576ZM44.8025 21.7676C44.8775 22.3151 44.92 22.9001 44.92 23.5326C44.92 25.2726 44.595 27.2301 43.615 29.6776L38.375 44.8276C42.2417 42.581 45.078 38.9128 46.2792 34.6051C47.4803 30.2974 46.9513 25.6909 44.805 21.7676H44.8025Z" fill="#9694E7"/>
<path fill-rule="evenodd" clip-rule="evenodd" d="M9.75 30C9.75 18.9725 18.7225 10 29.75 10C40.775 10 49.75 18.9725 49.75 30C49.75 41.0275 40.775 50 29.75 50C18.7225 50 9.75 41.0275 9.75 30ZM10.6675 30C10.6675 40.5225 19.2275 49.0825 29.75 49.0825C40.27 49.0825 48.83 40.5225 48.83 30C48.83 19.475 40.27 10.9175 29.75 10.9175C19.225 10.9175 10.6675 19.475 10.6675 30Z" fill="#9694E7"/>
</svg>
